<?xml version="1.0" encoding="UTF-8" standalone="no"?>
<!-- Created with Inkscape (http://www.inkscape.org/) -->

<svg
   xmlns:dc="http://purl.org/dc/elements/1.1/"
   xmlns:cc="http://creativecommons.org/ns#"
   xmlns:rdf="http://www.w3.org/1999/02/22-rdf-syntax-ns#"
   xmlns:svg="http://www.w3.org/2000/svg"
   xmlns="http://www.w3.org/2000/svg"
   xmlns:sodipodi="http://sodipodi.sourceforge.net/DTD/sodipodi-0.dtd"
   xmlns:inkscape="http://www.inkscape.org/namespaces/inkscape"
   width="100"
   height="100"
   viewBox="0 0 100 100"
   id="svg6646"
   version="1.1"
   inkscape:version="0.91 r13725"
   sodipodi:docname="hat.svg">
  <defs
     id="defs6648" />
  <sodipodi:namedview
     id="base"
     pagecolor="#ffffff"
     bordercolor="#666666"
     borderopacity="1.0"
     inkscape:pageopacity="0.0"
     inkscape:pageshadow="2"
     inkscape:zoom="0.35"
     inkscape:cx="-140.71429"
     inkscape:cy="520"
     inkscape:document-units="px"
     inkscape:current-layer="layer1"
     showgrid="false"
     units="px"
     inkscape:window-width="1855"
     inkscape:window-height="1056"
     inkscape:window-x="1985"
     inkscape:window-y="24"
     inkscape:window-maximized="1" />
  <metadata
     id="metadata6651">
    <rdf:RDF>
      <cc:Work
         rdf:about="">
        <dc:format>image/svg+xml</dc:format>
        <dc:type
           rdf:resource="http://purl.org/dc/dcmitype/StillImage" />
        <dc:title></dc:title>
      </cc:Work>
    </rdf:RDF>
  </metadata>
  <g
     inkscape:label="Layer 1"
     inkscape:groupmode="layer"
     id="layer1"
     transform="translate(0,-952.36216)">
    <g
       id="g4845"
       transform="matrix(0.54917979,0,0,0.54917979,-111.1537,816.78739)"
       style="display:inline;stroke-width:1.88130081;stroke-miterlimit:4;stroke-dasharray:none">
      <path
         style="stroke:#000000;stroke-width:1.88130081;stroke-miterlimit:4;stroke-dasharray:none;stroke-opacity:1"
         id="path4467"
         d="m 327.60148,355.41682 c -9,0 -16.3,7.3 -16.3,16.3 l 0,6.3 c -4.2,0.6 -7.5,4.2 -7.5,8.6 l 0,41.3 40,0 0,-56.3 c 0,-9 -7.3,-16.2 -16.2,-16.2 z m -16.3,70 -5,0 0,-7.5 5,0 0,7.5 z m 7.5,0 -5,0 0,-7.5 5,0 0,7.5 z m 7.5,0 -5,0 0,-7.5 5,0 0,7.5 z m 7.5,0 -5,0 0,-7.5 5,0 0,7.5 z m 7.5,0 -5,0 0,-7.5 5,0 0,7.5 z m 0,-10 -35,0 0,-28.8 c 0,-3.4 2.8,-6.3 6.3,-6.3 3.5,0 6.2,2.9 6.2,6.3 l 0,15 2.5,0 0,-15 c 0,-4.4 -3.3,-8 -7.5,-8.7 l 0,-6.3 c 0,-7.6 6.2,-13.8 13.8,-13.8 7.6,0 13.7,6.2 13.7,13.8 l 0,43.8 z"
         inkscape:connector-curvature="0" />
      <path
         style="stroke:#000000;stroke-width:1.88130081;stroke-miterlimit:4;stroke-dasharray:none;stroke-opacity:1"
         id="path4469"
         d="m 283.0872,428.01682 0,-41.3 c 0,-4.4 -3.3,-8 -7.5,-8.7 l 0,-6.3 c 0,-9 -7.3,-16.3 -16.3,-16.3 -9,0 -16.2,7.3 -16.2,16.3 l 0,56.3 40,0 z m -2.5,-2.5 -5,0 0,-7.5 5,0 0,7.5 z m -35,-53.8 c 0,-7.6 6.2,-13.8 13.8,-13.8 7.6,0 13.7,6.2 13.7,13.8 l 0,6.3 c -4.2,0.6 -7.5,4.3 -7.5,8.7 l 0,15 2.5,0 0,-15 c 0,-3.4 2.8,-6.3 6.3,-6.3 3.5,0 6.3,2.8 6.3,6.3 l 0,28.8 -35,0 0,-43.8 z m 5,53.8 -5,0 0,-7.5 5,0 0,7.5 z m 7.5,0 -5,0 0,-7.5 5,0 0,7.5 z m 7.5,0 -5,0 0,-7.5 5,0 0,7.5 z m 7.5,0 -5,0 0,-7.5 5,0 0,7.5 z"
         inkscape:connector-curvature="0" />
      <path
         id="path4708"
         d="m 334.06183,305.04439 -0.271,0 0,-3.088 c 0,-15.55 -9.492,-28.921 -22.982,-34.617 0.901,-0.905 1.462,-2.154 1.462,-3.531 0,-2.456 -1.779,-4.504 -4.117,-4.922 0.582,-0.832 0.895,-1.819 0.895,-2.855 0,-1.336 -0.521,-2.591 -1.465,-3.535 -0.943,-0.945 -2.199,-1.465 -3.535,-1.465 -1.035,0 -2.022,0.313 -2.854,0.895 -0.42,-2.338 -2.468,-4.118 -4.924,-4.118 -2.456,0 -4.504,1.78 -4.922,4.117 -0.832,-0.582 -1.819,-0.895 -2.855,-0.895 -1.335,0 -2.591,0.52 -3.535,1.464 -0.944,0.944 -1.465,2.2 -1.465,3.536 0,1.036 0.313,2.024 0.895,2.855 -2.339,0.42 -4.118,2.467 -4.118,4.923 0,1.377 0.561,2.626 1.464,3.531 -13.49,5.696 -22.984,19.068 -22.984,34.617 l 0,3.088 -0.271,0 c -2.481,0 -4.5,2.02 -4.5,4.5 l 0,13.264 c 0,2.48 2.019,4.5 4.5,4.5 l 75.582,0 c 2.48,0 4.5,-2.02 4.5,-4.5 l 0,-13.264 c 0,-2.48 -2.02,-4.5 -4.5,-4.5 z m -47.977,-39.236 -0.814,0 c -1.103,0 -2,-0.897 -2,-2 0,-1.103 0.897,-2 2,-2 l 2.551,0 c 0.606,0 1.153,-0.365 1.386,-0.926 0.233,-0.561 0.104,-1.206 -0.325,-1.635 l -1.803,-1.803 c -0.378,-0.377 -0.586,-0.879 -0.586,-1.414 0,-0.535 0.208,-1.036 0.586,-1.414 0.779,-0.779 2.049,-0.779 2.828,0 l 1.803,1.803 c 0.43,0.43 1.076,0.558 1.635,0.325 0.56,-0.231 0.925,-0.779 0.925,-1.385 l 0,-2.551 c 0,-1.103 0.897,-2 2,-2 1.104,0 2,0.897 2,2 l 0,2.551 c 0,0.606 0.365,1.154 0.926,1.386 0.561,0.232 1.205,0.104 1.635,-0.325 l 1.803,-1.803 c 0.779,-0.778 2.049,-0.781 2.828,0 0.379,0.377 0.586,0.879 0.586,1.414 0,0.535 -0.207,1.036 -0.586,1.414 l -1.803,1.803 c -0.429,0.429 -0.558,1.074 -0.324,1.635 0.232,0.561 0.778,0.926 1.386,0.926 l 2.549,0 c 1.104,0 2,0.897 2,2 0,1.103 -0.896,2 -2,2 l -0.624,0 c -0.062,0 -0.119,0.011 -0.179,0.018 -3.244,-0.919 -6.662,-1.421 -10.197,-1.421 -3.517,0 -6.918,0.497 -10.147,1.407 -0.013,-0.002 -0.026,-0.005 -0.039,-0.005 z m -24.334,36.148 c 0,-19.051 15.485,-34.552 34.52,-34.552 19.035,0 34.52,15.5 34.52,34.552 l 0,3.088 -69.04,0 0,-3.088 z m 18.417,6.088 0,16.264 -11.602,0 0,-16.264 11.602,0 z m 3,0 11.603,0 0,16.264 -11.603,0 0,-16.264 z m 14.603,0 11.604,0 0,16.264 -11.604,0 0,-16.264 z m 14.604,0 11.603,0 0,16.264 -11.603,0 0,-16.264 z m -55.395,14.764 0,-13.264 c 0,-0.826 0.673,-1.5 1.5,-1.5 l 7.086,0 0,16.264 -7.086,0 c -0.827,0 -1.5,-0.673 -1.5,-1.5 z m 78.582,0 c 0,0.827 -0.673,1.5 -1.5,1.5 l -7.086,0 0,-16.264 7.086,0 c 0.827,0 1.5,0.674 1.5,1.5 l 0,13.264 z"
         inkscape:connector-curvature="0"
         style="fill:#000000;stroke:#000000;stroke-width:1.88130081;stroke-miterlimit:4;stroke-dasharray:none;stroke-opacity:1" />
    </g>
  </g>
</svg>
