<?xml version="1.0" encoding="UTF-8" standalone="no"?>
<!-- Created with Inkscape (http://www.inkscape.org/) -->

<svg
   xmlns:dc="http://purl.org/dc/elements/1.1/"
   xmlns:cc="http://creativecommons.org/ns#"
   xmlns:rdf="http://www.w3.org/1999/02/22-rdf-syntax-ns#"
   xmlns:svg="http://www.w3.org/2000/svg"
   xmlns="http://www.w3.org/2000/svg"
   xmlns:sodipodi="http://sodipodi.sourceforge.net/DTD/sodipodi-0.dtd"
   xmlns:inkscape="http://www.inkscape.org/namespaces/inkscape"
   width="100"
   height="100"
   viewBox="0 0 100 100"
   id="svg6051"
   version="1.1"
   inkscape:version="0.91 r13725"
   sodipodi:docname="sweater.svg">
  <defs
     id="defs6053" />
  <sodipodi:namedview
     id="base"
     pagecolor="#ffffff"
     bordercolor="#666666"
     borderopacity="1.0"
     inkscape:pageopacity="0.0"
     inkscape:pageshadow="2"
     inkscape:zoom="1.979899"
     inkscape:cx="47.927878"
     inkscape:cy="116.81273"
     inkscape:document-units="px"
     inkscape:current-layer="layer1"
     showgrid="false"
     units="px"
     fit-margin-top="0"
     fit-margin-left="0"
     fit-margin-right="0"
     fit-margin-bottom="0"
     inkscape:window-width="1855"
     inkscape:window-height="1056"
     inkscape:window-x="1985"
     inkscape:window-y="24"
     inkscape:window-maximized="1" />
  <metadata
     id="metadata6056">
    <rdf:RDF>
      <cc:Work
         rdf:about="">
        <dc:format>image/svg+xml</dc:format>
        <dc:type
           rdf:resource="http://purl.org/dc/dcmitype/StillImage" />
        <dc:title></dc:title>
      </cc:Work>
    </rdf:RDF>
  </metadata>
  <g
     inkscape:label="Layer 1"
     inkscape:groupmode="layer"
     id="layer1"
     transform="translate(-330.19871,-471.83441)">
    <path
       id="path4456"
       d="m 412.88153,488.90663 c -4.6,-4.2 -16.7,-6.3 -18,-6.5 -0.8,-0.1 -1.7,0.3 -2.1,1 -3.3,6.2 -8.7,9 -12.2,9 -0.1,0 -0.2,0 -0.3,0 -0.1,0 -0.2,0 -0.3,0 -3.6,0 -8.9,-2.8 -12.2,-9 -0.4,-0.7 -1.2,-1.2 -2.1,-1 -1.4,0.2 -13.5,2.3 -18,6.5 -15.9,14.6 -13.6,60.79999 -8.4,67.69999 0.4,0.6 1.2,0.9 1.9,0.8 l 10,-1.4 c 1.1,-0.1 1.8,-1.1 1.7,-2.2 0,-0.2 -1.6,-18.3 -1,-28.29999 0.1,-2.1 0.9,-5.5 1.9,-8.8 0.1,9.1 0.6,23.79999 3.2,40.59999 0.1,0.8 0.7,1.5 1.5,1.6 0.4,0.1 10,2.4 21.4,2.4 0,0 0,0 0,0 l 0.1,0 0.1,0 c 0.1,0 0.2,0 0.2,0 0.1,0 0.2,0 0.2,0 l 0.1,0 c 0,0 0,0 0,0 11.4,0 21,-2.3 21.4,-2.4 0.8,-0.2 1.4,-0.8 1.5,-1.6 2.5,-16.8 3.1,-31.49999 3.2,-40.59999 1,3.2 1.7,6.7 1.9,8.8 0.6,10.09999 -1,28.09999 -1,28.29999 -0.1,1.1 0.7,2 1.7,2.2 l 10,1.4 c 0.7,0.1 1.4,-0.2 1.9,-0.8 5.1,-6.9 7.4,-53.09999 -8.3,-67.69999 z m -70.9,64.29999 c -0.2,-0.5 -0.4,-1.2 -0.6,-2 1.6,-0.2 4.4,-0.7 7.2,-1.4 0.1,0.9 0.1,1.8 0.2,2.4 l -6.8,1 z m 38.5,4.2 c -0.1,0 -0.2,0 -0.2,0 -0.1,0 -0.2,0 -0.2,0 l -0.1,0 c -8.6,0 -16.3,-1.4 -19.2,-2 -0.1,-0.9 -0.2,-1.7 -0.4,-2.6 4.5,1 12.1,2.3 21,2.3 5.8,0 12.3,-0.6 18.7,-2.1 -0.1,0.8 -0.2,1.6 -0.3,2.4 -3,0.6 -10.7,2 -19.3,2 z m 24.7,-51.89999 c -0.6,-0.2 -1.3,-0.1 -1.9,0.3 -0.5,0.4 -0.8,1 -0.8,1.7 0,0.2 0.9,17.8 -1.9,41.19999 -17.7,4.6 -35.6,1.1 -40.8,-0.1 -2.8,-23.29999 -1.9,-40.79999 -1.9,-40.99999 0,-0.7 -0.3,-1.3 -0.8,-1.7 -0.5,-0.4 -1.2,-0.5 -1.9,-0.3 -4,1.5 -7.2,17.1 -7.3,19.8 -0.3,5.9 0,14.29999 0.4,20.49999 -2.9,0.8 -6.2,1.3 -7.7,1.5 -2.2,-14.19999 -2.1,-44.69999 9.7,-55.49999 2.8,-2.6 10.5,-4.5 14.6,-5.3 4.2,6.7 10.4,9.8 15,9.8 0.1,0 0.2,0 0.3,0 0.1,0 0.2,0 0.3,0 4.6,0 10.9,-3 15,-9.8 4.1,0.8 11.8,2.7 14.6,5.3 11.7,10.9 11.9,41.3 9.7,55.39999 -1.6,-0.2 -4.8,-0.7 -7.7,-1.5 0.4,-6.2 0.7,-14.59999 0.4,-20.49999 -0.2,-2.7 -3.4,-18.3 -7.3,-19.8 z m 6.4,46.79999 c 0.1,-0.7 0.1,-1.5 0.2,-2.4 2.8,0.7 5.6,1.2 7.2,1.4 -0.2,0.8 -0.4,1.5 -0.6,2 l -6.8,-1 z"
       inkscape:connector-curvature="0"
       style="display:inline;fill:#000000;stroke-width:4;stroke-miterlimit:4;stroke-dasharray:none" />
  </g>
</svg>
