<?xml version="1.0" encoding="UTF-8" standalone="no"?>
<!-- Created with Inkscape (http://www.inkscape.org/) -->

<svg
   xmlns:dc="http://purl.org/dc/elements/1.1/"
   xmlns:cc="http://creativecommons.org/ns#"
   xmlns:rdf="http://www.w3.org/1999/02/22-rdf-syntax-ns#"
   xmlns:svg="http://www.w3.org/2000/svg"
   xmlns="http://www.w3.org/2000/svg"
   xmlns:sodipodi="http://sodipodi.sourceforge.net/DTD/sodipodi-0.dtd"
   xmlns:inkscape="http://www.inkscape.org/namespaces/inkscape"
   width="100"
   height="100"
   viewBox="0 0 100 100"
   id="svg5460"
   version="1.1"
   inkscape:version="0.91 r13725"
   sodipodi:docname="tshirt.svg">
  <defs
     id="defs5462" />
  <sodipodi:namedview
     id="base"
     pagecolor="#ffffff"
     bordercolor="#666666"
     borderopacity="1.0"
     inkscape:pageopacity="0.0"
     inkscape:pageshadow="2"
     inkscape:zoom="0.35"
     inkscape:cx="176.21461"
     inkscape:cy="-310.56421"
     inkscape:document-units="px"
     inkscape:current-layer="layer1"
     showgrid="false"
     fit-margin-top="0"
     fit-margin-left="0"
     fit-margin-right="0"
     fit-margin-bottom="0"
     units="px"
     inkscape:window-width="1855"
     inkscape:window-height="1056"
     inkscape:window-x="1985"
     inkscape:window-y="24"
     inkscape:window-maximized="1" />
  <metadata
     id="metadata5465">
    <rdf:RDF>
      <cc:Work
         rdf:about="">
        <dc:format>image/svg+xml</dc:format>
        <dc:type
           rdf:resource="http://purl.org/dc/dcmitype/StillImage" />
        <dc:title></dc:title>
      </cc:Work>
    </rdf:RDF>
  </metadata>
  <g
     inkscape:label="Layer 1"
     inkscape:groupmode="layer"
     id="layer1"
     transform="translate(316.92889,-121.79799)">
    <g
       id="g6018"
       transform="matrix(0.82149888,0,0,0.82149888,-43.950625,39.591191)">
      <g
         transform="matrix(0.70083531,0,0,0.70083531,-297.70994,82.155525)"
         id="g4511"
         style="display:inline">
        <path
           id="path4513"
           d="m 46.109375,26.054688 c -2.824219,0.457031 -5.988281,1.410156 -8.851563,1.324218 -1.71875,-0.05078 -3.347656,-0.453125 -4.886718,-0.8125 -10.386719,-2.417968 -18.300782,0.636719 -30.621094,0.777344 l 0.015625,4.144531 c 0.71875,0.01563 1.917969,0.277344 1.976563,1.65625 0.4375,11.097657 4.140624,16.132813 13.84375,16.140625 10.980468,0.01172 16.390624,-10.75 17.101562,-14.710937 0.382812,-2.128907 1.476562,-2.34375 2.699219,-2.378907 2.167969,-0.05469 2.417969,1.53125 2.792969,2.488282 4.460937,11.273437 7.140624,13.839844 16.503906,14.652344 14.222656,1.242187 12.585937,-9.308594 14.511718,-15.4375 0.367188,-1.171876 0.769532,-1.773438 2.054688,-1.800782 l -0.117188,-4.144531 c -10.382812,-0.07813 -15.9375,-3.679687 -27.023437,-1.898437 z m 0,0"
           style="fill:#0a0b0c;fill-opacity:1;fill-rule:nonzero;stroke:none"
           inkscape:connector-curvature="0" />
      </g>
      <path
         id="path4689"
         d="m -227.39184,153.02599 c -3.211,-1.149 -17.305,-6.922 -17.447,-6.98 -0.036,-0.015 -0.074,-0.028 -0.111,-0.041 l -15.702,-4.972 c -0.424,-0.135 -0.885,-0.067 -1.252,0.183 -0.034,0.022 -3.432,2.278 -9.527,2.278 -6.025,0 -9.504,-2.261 -9.533,-2.279 -0.368,-0.249 -0.83,-0.315 -1.252,-0.182 l -15.699,4.971 c -0.038,0.013 -0.075,0.026 -0.112,0.041 -0.142,0.059 -14.234,5.831 -17.44,6.98 -0.706,0.253 -1.103,1 -0.917,1.726 l 3.653,14.281 c 0.162,0.634 0.728,1.081 1.383,1.092 3.152,0.051 10.218,0.15 13.255,0.192 l 0,49.531 c 0,0.802 0.649,1.451 1.452,1.451 l 50.422,0 c 0.802,0 1.451,-0.649 1.451,-1.451 l 0,-49.53 c 3.037,-0.042 10.104,-0.142 13.256,-0.192 0.653,-0.011 1.22,-0.458 1.382,-1.092 l 3.657,-14.28 c 0.185,-0.727 -0.214,-1.475 -0.919,-1.727 z m -54.562,-9.03 c 1.401,0.762 5.053,2.401 10.524,2.401 5.472,0 9.119,-1.639 10.519,-2.401 l 0.498,0.158 c -1.334,5.013 -5.682,8.409 -11.001,8.409 -0.014,-0.001 -0.025,-0.001 -0.037,0 -5.317,0 -9.666,-3.397 -11,-8.41 l 0.497,-0.157 z m -31.294,11.299 c 3.763,-1.441 11.975,-4.786 15.099,-6.062 0.962,1.775 2.42,4.654 2.42,9.476 0,4.325 -1.135,7.368 -1.757,8.714 -2.355,-0.033 -8.963,-0.125 -12.707,-0.184 l -3.055,-11.944 z m 18.057,63.101 0,-49.066 c 0.639,-1.193 2.365,-4.943 2.365,-10.622 0,-5.172 -1.51,-8.483 -2.557,-10.46 l 10.164,-3.219 c 1.707,6.226 7.134,10.437 13.763,10.437 0.015,0 0.03,0 0.046,0 6.631,0 12.057,-4.211 13.764,-10.436 l 10.164,3.218 c -1.045,1.978 -2.555,5.289 -2.555,10.46 0,5.675 1.725,9.423 2.365,10.619 l 0,49.068 -47.519,0 z m 62.522,-51.158 c -3.742,0.059 -10.35,0.15 -12.705,0.184 -0.623,-1.349 -1.758,-4.391 -1.758,-8.714 0,-4.82 1.455,-7.7 2.417,-9.476 3.126,1.276 11.338,4.622 15.104,6.062 l -3.058,11.944 z"
         inkscape:connector-curvature="0"
         style="display:inline;fill:#000000;stroke:#000000;stroke-opacity:1" />
    </g>
  </g>
</svg>
