<?xml version="1.0" encoding="UTF-8" standalone="no"?>
<!-- Created with Inkscape (http://www.inkscape.org/) -->

<svg
   xmlns:dc="http://purl.org/dc/elements/1.1/"
   xmlns:cc="http://creativecommons.org/ns#"
   xmlns:rdf="http://www.w3.org/1999/02/22-rdf-syntax-ns#"
   xmlns:svg="http://www.w3.org/2000/svg"
   xmlns="http://www.w3.org/2000/svg"
   xmlns:sodipodi="http://sodipodi.sourceforge.net/DTD/sodipodi-0.dtd"
   xmlns:inkscape="http://www.inkscape.org/namespaces/inkscape"
   width="100"
   height="100"
   viewBox="0 0 100 99.999997"
   id="svg4204"
   version="1.1"
   inkscape:version="0.91 r13725"
   sodipodi:docname="umbrella.svg">
  <defs
     id="defs4206" />
  <sodipodi:namedview
     id="base"
     pagecolor="#ffffff"
     bordercolor="#666666"
     borderopacity="1.0"
     inkscape:pageopacity="0.0"
     inkscape:pageshadow="2"
     inkscape:zoom="3.959798"
     inkscape:cx="83.150154"
     inkscape:cy="-15.236313"
     inkscape:document-units="px"
     inkscape:current-layer="layer1"
     showgrid="false"
     fit-margin-top="0"
     fit-margin-left="0"
     fit-margin-right="0"
     fit-margin-bottom="0"
     units="px"
     inkscape:window-width="1855"
     inkscape:window-height="1056"
     inkscape:window-x="1985"
     inkscape:window-y="24"
     inkscape:window-maximized="1" />
  <metadata
     id="metadata4209">
    <rdf:RDF>
      <cc:Work
         rdf:about="">
        <dc:format>image/svg+xml</dc:format>
        <dc:type
           rdf:resource="http://purl.org/dc/dcmitype/StillImage" />
        <dc:title></dc:title>
      </cc:Work>
    </rdf:RDF>
  </metadata>
  <g
     inkscape:label="Layer 1"
     inkscape:groupmode="layer"
     id="layer1"
     transform="translate(862.50944,563.71024)">
    <path
       inkscape:connector-curvature="0"
       d="m -764.78767,-491.28285 0.148,-3.127 c 2.577,-22.588 -9.093,-44.177 -29.285,-54.437 l 0.644,-1.381 c 0.437,-0.935 0.031,-2.05 -0.904,-2.486 -0.935,-0.436 -2.05,-0.029 -2.486,0.905 l -0.644,1.38 c -20.47099,-8.713 -44.02799,-4.105 -59.68699,11.695 -0.012,0 -3.149,2.959 -3.149,2.959 -0.75,0.712 -0.778,1.896 -0.071,2.645 0.17,0.179 0.36,0.315 0.569,0.413 0.673,0.314 1.502,0.205 2.081,-0.339 l 1.002,-0.948 24.846,11.586 -0.441,0.945 c -0.438,0.939 -0.03,2.05 0.905,2.486 0.94,0.438 2.048,0.034 2.486,-0.905 l 0.44,-0.944 14.145,6.596 -15.797,33.873 c -1.672,3.585 -5.717,4.736 -8.309,3.527 -1.042,-0.485 -1.712,-1.288 -1.993,-2.38 -0.365,-1.444 -0.031,-3.347 0.972,-5.499 0.438,-0.938 0.035,-2.047 -0.905,-2.485 -0.936,-0.436 -2.048,-0.034 -2.486,0.905 -1.391,2.984 -1.798,5.679 -1.202,8.003 0.554,2.176 1.988,3.894 4.032,4.847 4.282,1.997 10.641,0.326 13.281,-5.337 l 15.797,-33.875 14.43599,6.732 -0.44,0.943 c -0.438,0.939 -0.03,2.051 0.905,2.486 0.939,0.438 2.047,0.035 2.485,-0.905 l 0.44,-0.944 24.517,11.433 -0.065,1.455 c -0.041,0.784 0.408,1.477 1.076,1.789 0.214,0.099 0.452,0.157 0.701,0.167 1.032,0.05 1.913,-0.748 1.956,-1.778 z m -65.43399,-34.563 -23.445,-10.933 c 13.633,-13.24 33.368,-17.632 51.216,-11.602 -1.79,0.386 -3.805,0.961 -5.949,1.807 -6.528,2.576 -15.489,8.259 -21.822,20.728 z m 3.396,1.583 c 8.953,-17.556 23.211,-20.598 29.10699,-21.087 0.035,-0.001 0.074,-0.006 0.11,-0.007 0.019,0.032 0.036,0.058 0.059,0.086 3.416,4.83 10.245,17.705 2.551,35.849 l -31.82699,-14.841 z m 35.22199,16.424 c 5.48,-12.866 4.074,-23.382 1.853,-30.039 -0.73,-2.187 -1.586,-4.1 -2.44,-5.719 16.091,9.797 25.411,27.738 24.033,46.691 l -23.446,-10.933 z"
       id="path4415"
       style="display:inline;stroke-width:4;stroke-miterlimit:4;stroke-dasharray:none" />
  </g>
</svg>
